<svg width="50" height="50" viewBox="0 0 50 50" fill="none" xmlns="http://www.w3.org/2000/svg">
<path d="M37.4624 39.0103C36.0067 37.0829 34.1234 35.5199 31.9607 34.4444C29.7981 33.3689 27.4153 32.8102 24.9999 32.8124C22.5846 32.8102 20.2018 33.3689 18.0391 34.4444C15.8765 35.5199 13.9932 37.0829 12.5374 39.0103M37.4624 39.0103C40.3031 36.4836 42.3064 33.1531 43.2107 29.4605C44.115 25.7678 43.8755 21.8876 42.5238 18.3342C41.1722 14.7809 38.7723 11.7223 35.6424 9.56424C32.5126 7.40616 28.8007 6.25049 24.9989 6.25049C21.1972 6.25049 17.4852 7.40616 14.3554 9.56424C11.2255 11.7223 8.82563 14.7809 7.47398 18.3342C6.12232 21.8876 5.88276 25.7678 6.78707 29.4605C7.69138 33.1531 9.69682 36.4836 12.5374 39.0103M37.4624 39.0103C34.0333 42.069 29.595 43.7564 24.9999 43.7499C20.4042 43.7569 15.9671 42.0695 12.5374 39.0103M31.2499 20.3124C31.2499 21.97 30.5915 23.5597 29.4194 24.7318C28.2473 25.9039 26.6575 26.5624 24.9999 26.5624C23.3423 26.5624 21.7526 25.9039 20.5805 24.7318C19.4084 23.5597 18.7499 21.97 18.7499 20.3124C18.7499 18.6548 19.4084 17.0651 20.5805 15.893C21.7526 14.7209 23.3423 14.0624 24.9999 14.0624C26.6575 14.0624 28.2473 14.7209 29.4194 15.893C30.5915 17.0651 31.2499 18.6548 31.2499 20.3124Z" stroke="#000A12" stroke-width="3.125" stroke-linecap="round" stroke-linejoin="round"/>
</svg>
